<svg xmlns="http://www.w3.org/2000/svg" width="50" height="50" viewBox="0 0 50 50">
  <g id="Group_3387" data-name="Group 3387" transform="translate(-140 -1545)">
    <rect id="Rectangle_255" data-name="Rectangle 255" width="50" height="25" transform="translate(140 1570)" fill="#00cdc6" opacity="0.5"/>
    <g id="verified_user_black_24dp" transform="translate(140 1545)">
      <path id="Path_38" data-name="Path 38" d="M0,0H50V50H0Z" fill="none"/>
      <path id="Path_39" data-name="Path 39" d="M21.75,1,3,9.333v12.5c0,11.563,8,22.375,18.75,25C32.5,44.208,40.5,33.4,40.5,21.833V9.333ZM36.333,21.833c0,9.417-6.208,18.1-14.583,20.688C13.375,39.938,7.167,31.25,7.167,21.833V12.042L21.75,5.562l14.583,6.479ZM12.187,23.063,9.25,26l8.333,8.333L34.25,17.667l-2.938-2.958L17.583,28.438Z" transform="translate(3.25 1.083)"/>
      <path id="Path_40" data-name="Path 40" d="M5,9.669v9.792c0,9.417,6.208,18.1,14.583,20.687,8.375-2.562,14.583-11.271,14.583-20.687V9.669L19.583,3.19Zm27.083,5.625L15.417,31.961,7.083,23.627l2.938-2.937,5.4,5.375L29.146,12.336Z" transform="translate(5.417 3.456)" fill="#00cdc6"/>
    </g>
  </g>
</svg>
