<svg xmlns="http://www.w3.org/2000/svg" width="163.999" height="42.989"><defs><style>.a{fill:#2b2b2b}</style></defs><path class="a" d="M7.869 22.379V2.121A1.66 1.66 0 0 0 6.038.287H1.831A1.66 1.66 0 0 0 0 2.121v38.167a1.66 1.66 0 0 0 1.831 1.834h4.206a1.66 1.66 0 0 0 1.831-1.834V29.142"/><path class="a" d="M17.715 28.237 27 40.037c.944 1.22.189 2.088-1.7 2.088h-5.027a3.3 3.3 0 0 1-2.869-1.22L8.911 29.84s-1.21-1.042-1.244-1.816v-1.088h9.33ZM17.715 25.635 27 13.835c.944-1.22.189-2.088-1.7-2.088h-5.027a3.3 3.3 0 0 0-2.869 1.22l-8.49 11.068s-1.21 1.043-1.244 1.816v1.085h9.327ZM45.637 11.749a5.256 5.256 0 0 1 1.173.115 1.775 1.775 0 0 1 1.4 2.12l-.258 3.324c-.114 1.232-.858 1.691-2.117 1.49a9.119 9.119 0 0 0-1.2-.086c-3.777 0-6.924 3.066-6.924 7.679v13.9a1.66 1.66 0 0 1-1.831 1.834h-4.206a1.66 1.66 0 0 1-1.831-1.834V23.764s.459-8.054 7.871-10.868c-.002 0 1.56-1.076 7.923-1.147ZM55.679 29.628H77.34a1.761 1.761 0 0 0 1.974-1.662c.029-.4.057-.831.057-1.2 0-8.281-6.467-15.015-15.537-15.015-9.185 0-16.109 6.848-16.109 15.53s6.724 15.53 16.853 15.53a17.261 17.261 0 0 0 12.447-4.986 1.677 1.677 0 0 0-.057-2.607l-1.4-1.4a1.773 1.773 0 0 0-2.6-.115 12.927 12.927 0 0 1-8.413 2.837c-4.756-.006-8.189-2.785-8.876-6.912Zm8.1-11.6a7.52 7.52 0 0 1 7.5 5.989H55.88a8.142 8.142 0 0 1 7.897-5.989ZM105.55 37.996v1.719a2.261 2.261 0 0 0 .157.876 14.6 14.6 0 0 0 7.626-13.956c-.54-10.941 0-24.513 0-24.513a1.66 1.66 0 0 0-1.831-1.834h-4.12a1.66 1.66 0 0 0-1.831 1.834v13.867m0 11.29"/><path class="a" d="M81.489 27.223s.238-14.98 15.738-15.759c0 0 14.546-.177 16.023 14.613h-7.723s-.38-7.865-8.3-8.023c0 0-7.676.11-8.583 8.6 0 0-.762 8.61 8.583 9.742 0 0 8.728.349 8.3-9.742h7.725s1.718 14.7-15.45 16.332c-.005-.005-15.932-.148-16.313-15.763Z"/><path d="M252.792 100.962 267.1 82.338l-14.594-18.624a1.938 1.938 0 0 1 0-2.006 2.033 2.033 0 0 1 1.717-.573h7.153s2.384-.26 4.864 3.438l6.581 8.6a2.324 2.324 0 0 1 .572 1.146V90.36a2.321 2.321 0 0 1-.858 1.719l-7.725 10.028s-1.025 1.793-4.864 1.719h-6.008a1.742 1.742 0 0 1-1.717-.86 1.776 1.776 0 0 1 .571-2.004Z" transform="translate(-133.536 -60.845)" style="fill:#00cdc6"/><path class="a" d="m163.319 39.83-14.306-18.624 14.592-18.625a1.938 1.938 0 0 0 0-2.006 2.033 2.033 0 0 0-1.717-.573h-7.153s-2.384-.26-4.864 3.438l-6.581 8.6a2.326 2.326 0 0 0-.572 1.146v16.043a2.322 2.322 0 0 0 .858 1.719l7.725 10.028s1.025 1.793 4.864 1.719h6.014a1.742 1.742 0 0 0 1.717-.86 1.776 1.776 0 0 0-.577-2.005Z"/><path d="m270.533 91.637 6.295 8.023a1.734 1.734 0 0 1-.572 1.433H263.38Z" transform="translate(-136.971 -70.144)" style="opacity:.2"/><path d="m293.129 87.491-6.295-8.023a1.734 1.734 0 0 1 .572-1.433h12.875Z" transform="translate(-144.117 -65.998)" style="opacity:.702"/></svg>